<svg xmlns="http://www.w3.org/2000/svg" width="62" height="34" fill="none" viewBox="0 0 62 34"><path fill="#fff" d="M60.2719 17.2206L54.1404 16.3726L51.6617 10.0454C51.0094 8.3494 49.3786 7.30573 47.3565 7.30573H40.2465C39.6594 7.30573 39.1376 7.6971 39.0724 8.28417L36.7241 21.2648C36.5937 21.8519 36.1371 22.2433 35.55 22.2433H4.37032C3.78325 22.2433 3.26142 22.6346 3.19619 23.2217L2.54389 26.9398C2.41343 27.6573 3.0005 28.3748 3.71802 28.3748H6.26197C6.00105 31.1797 7.95794 33.3975 10.7628 33.3975C13.6329 33.3975 16.3725 31.1797 17.0901 28.3748H45.4649C45.2039 31.1797 47.1608 33.3975 50.0309 33.3975C52.901 33.3975 55.6407 31.1797 56.3582 28.3748H59.424C60.011 28.3748 60.5329 27.9835 60.5981 27.3964L61.9679 19.6341C62.1636 18.3947 61.4461 17.3511 60.2719 17.2206ZM14.6113 27.9182C14.3504 29.4837 12.8501 30.7883 11.2194 30.7883C9.6539 30.7883 8.545 29.4837 8.87115 27.9182C9.13207 26.3527 10.6323 25.0481 12.2631 25.0481C13.8286 25.0481 14.9375 26.3527 14.6113 27.9182ZM41.5511 16.1769L42.5295 10.6977H46.7042C47.4217 10.6977 48.074 11.089 48.335 11.7413L50.0962 16.1769H41.5511ZM53.8142 27.9182C53.5533 29.4837 52.053 30.7883 50.4223 30.7883C48.8568 30.7883 47.7479 29.4837 48.074 27.9182C48.335 26.3527 49.8352 25.0481 51.466 25.0481C53.0315 25.0481 54.0752 26.3527 53.8142 27.9182Z"/><path fill="#fff" d="M23.6131 6.97956V6.65342C23.6131 6.45773 23.4826 6.32727 23.2869 6.32727H22.7651C22.5694 6.32727 22.439 6.45773 22.439 6.65342V6.97956C22.6347 6.97956 22.8303 6.97956 23.026 6.97956C23.2217 6.97956 23.4174 6.97956 23.6131 6.97956Z"/><path fill="#fff" d="M35.2891 19.5036L38.4854 1.43505C38.6158 0.717524 38.0288 0 37.3112 0H6.1968C5.0879 0 4.17468 0.913212 4.17468 2.02211C4.17468 3.13101 5.0879 4.04423 6.1968 4.04423H9.58873C10.6976 4.04423 11.6108 4.95744 11.6108 6.06634C11.6108 7.17524 10.6976 8.08845 9.58873 8.08845H4.10945C3.00055 8.08845 2.08734 9.00166 2.08734 10.1106C2.08734 11.2195 3.00055 12.1327 4.10945 12.1327H7.50138C8.61029 12.1327 9.5235 13.0459 9.5235 14.1548C9.5235 15.2637 8.61029 16.1769 7.50138 16.2421H2.02211C0.913212 16.2421 0 17.1553 0 18.2642C0 19.3731 0.913212 20.2864 2.02211 20.2864H34.0498C34.7021 20.5473 35.2239 20.0907 35.2891 19.5036ZM21.6562 7.11001V6.6534C21.6562 6.06634 22.1128 5.60973 22.6998 5.60973H23.2217C23.8087 5.60973 24.2653 6.06634 24.2653 6.6534V7.11001C26.6136 7.69707 28.3748 9.65396 28.5705 12.0674C28.5705 12.1979 28.44 12.3284 28.3096 12.3284H17.6119C17.4815 12.3284 17.351 12.1979 17.351 12.0674C17.6119 9.65396 19.3731 7.69707 21.6562 7.11001ZM29.8099 14.4809C29.8099 14.6766 29.6142 14.8723 29.4185 14.8723H16.5683C16.3726 14.8723 16.1769 14.6766 16.1769 14.4809V13.7634C16.1769 13.5677 16.3726 13.372 16.5683 13.372H29.4185C29.6142 13.372 29.8099 13.5677 29.8099 13.7634V14.4809V14.4809Z"/></svg>